# xmcd CD database file
# Copyright (C) 1997 Ti Kan
#
# Track frame offsets:
#  182
#  13545
#  29285
#  49472
#  63887
#  81152
#  100915
#  113642
#  129057
#  143605
#
# Disc length: 2120 seconds
#
# Revision: 1
# Processed by: cddbd v1.4b41PL1 Copyright (c) Steve Scherf et al.
# Submitted via: CDWizzard Release:4.30
#
DISCID=7608460a
DTITLE=Corbin/Hanner - Black and White Photograph
DYEAR=1900
DGENRE=
TTITLE0=Work Song
TTITLE1=Everywhere
TTITLE2=When You Love In Vain
TTITLE3=Bon Ton Roulette
TTITLE4=When Bonds Begin To Break
TTITLE5=Wild Winds
TTITLE6=Concrete Cowboy
TTITLE7=You'll Never See My Love Come Down
TTITLE8=One More Night
TTITLE9=Scooter, Michael, Danny And Me
EXTD=
EXTT0=
EXTT1=
EXTT2=
EXTT3=
EXTT4=
EXTT5=
EXTT6=
EXTT7=
EXTT8=
EXTT9=
PLAYORDER=
